<?xml version="1.0" encoding="UTF-8" standalone="no"?>
<!-- Created with Inkscape (http://www.inkscape.org/) -->

<svg
   width="820"
   height="462"
   viewBox="0 0 820 462"
   version="1.1"
   id="svg1"
   xml:space="preserve"
   sodipodi:docname="image-classification-to-bitwise.svg"
   inkscape:version="1.4.2 (ebf0e940, 2025-05-08)"
   xmlns:inkscape="http://www.inkscape.org/namespaces/inkscape"
   xmlns:sodipodi="http://sodipodi.sourceforge.net/DTD/sodipodi-0.dtd"
   xmlns="http://www.w3.org/2000/svg"
   xmlns:svg="http://www.w3.org/2000/svg"><sodipodi:namedview
     id="namedview1"
     pagecolor="#ffffff"
     bordercolor="#000000"
     borderopacity="0.25"
     inkscape:showpageshadow="2"
     inkscape:pageopacity="0.0"
     inkscape:pagecheckerboard="0"
     inkscape:deskcolor="#d1d1d1"
     inkscape:document-units="px"
     inkscape:zoom="0.81835957"
     inkscape:cx="249.89016"
     inkscape:cy="156.41046"
     inkscape:window-width="1512"
     inkscape:window-height="945"
     inkscape:window-x="0"
     inkscape:window-y="102"
     inkscape:window-maximized="0"
     inkscape:current-layer="layer1" /><defs
     id="defs1" /><g
     inkscape:label="Layer 1"
     inkscape:groupmode="layer"
     id="layer1"><path
       style="fill:#cccccc;fill-opacity:1"
       d="m 43.154254,273.10301 c -5.25456,-0.27626 -5.60675,-0.44882 -5.10235,-2.5 0.31399,-1.27682 0.16436,-1.85285 -0.35584,-1.36992 -0.49371,0.45834 -0.89765,1.35834 -0.89765,2 0,2.12077 -2.99372,1.21074 -3.30942,-1.00599 -0.22905,-1.60841 0.29036,-2.27687 2,-2.57389 1.27018,-0.22068 -0.50308,-0.7636 -3.94058,-1.20651 -6.24644,-0.80481 -6.25,-0.80716 -6.25,-4.11709 0,-1.8215 -0.48585,-3.61209 -1.07966,-3.97908 -0.66156,-0.40887 -1.01128,-4.01381 -0.90309,-9.30902 0.22794,-11.15642 0.22982,-11.14175 -1.42363,-11.14175 -0.93744,0 -1.24249,0.75024 -0.91486,2.25 0.48047,2.19945 0.44516,2.19383 -1.57139,-0.25 -1.13459,-1.375 -2.0729,-3.93534 -2.08513,-5.68963 -0.0207,-2.96866 0.23757,-3.21114 3.72776,-3.5 3.40774,-0.28204 3.7782,-0.60161 4.05896,-3.50141 0.26901,-2.77845 0.72155,-3.23099 3.5,-3.5 l 3.19104,-0.30896 0.5,-7 c 0.32614,-4.56595 0.93465,-7.04347 1.75,-7.125 0.6875,-0.0688 2.15,-0.18125 3.25,-0.25 1.79577,-0.11224 2,-0.83333 2,-7.06164 v -6.93664 l 3.25,-0.31336 c 2.87257,-0.27697 3.30807,-0.71982 3.75,-3.81336 0.46113,-3.22788 0.75268,-3.48598 3.75,-3.31966 3.05089,0.16929 3.25,-0.0233 3.25,-3.14301 0,-3.50997 1.26385,-4.53733 5.581786,-4.53733 2.14826,0 2.41821,-0.43964 2.41821,-3.93826 0,-3.65288 0.19449,-3.92462 2.68391,-3.75 2.78174,0.19512 3.23885,-0.67932 4.99835,-9.56174 0.44353,-2.23905 1.08105,-2.75 3.43124,-2.75 1.58757,0 2.95504,-0.5625 3.03881,-1.25 0.0838,-0.6875 0.25687,-1.7 0.38465,-2.25 0.12779,-0.55 0.28425,-3.5875 0.34769,-6.75 l 0.11535,-5.75 h 3.500005 c 3.33333,0 3.5,-0.16667 3.5,-3.5 0,-3.33333 0.16667,-3.5 3.5,-3.5 3.33823,0 3.5,-0.16296 3.5,-3.52592 v -3.52592 l 6.75,0.27592 6.750015,0.27592 0.68611,4.5 c 0.37737,2.475 0.4345,7.06312 0.12697,10.19582 -0.54086,5.50944 -0.66147,5.70577 -3.68612,6 l -3.126965,0.30418 -0.29382,7.25 -0.29381,7.25 h -3.45619 c -2.581,0 -3.4854,0.44314 -3.57154,1.75 -0.0634,0.9625 -0.17594,2.425 -0.25,3.25 -0.088,0.97997 -1.43471,1.6076 -3.88465,1.81037 -3.54636,0.29351 -3.75,0.49715 -3.75,3.75 0,3.15514 -0.24812,3.43963 -3,3.43963 -2.149985,0 -3.030125,0.49584 -3.106305,1.75 -0.0585,0.9625 -0.20649,2.425 -0.32895,3.25 -0.12246,0.825 -0.29962,3.1875 -0.3937,5.25 -0.16785,3.67982 -0.2459,3.75 -4.17105,3.75 -3.99505,0 -4.5999,0.70509 -4.07465,4.75 0.0923,0.71095 -0.9195,1.25 -2.34633,1.25 -4.35327,0 -5.46183,5.00552 -3.93104,17.75 0.62061,5.16679 0.68386,5.25 3.99131,5.25 3.17414,0 3.36071,-0.1943 3.36071,-3.5 v -3.5 H 89.738045 111.1777 l 0.31036,3.75 c 0.28335,3.42358 0.59327,3.77728 3.56037,4.06336 2.85772,0.27553 3.25,0.66781 3.25,3.25 0,2.58287 -0.35413,2.93664 -2.93963,2.93664 -2.67507,0 -2.96757,0.3375 -3.25,3.75 -0.28043,3.38828 -0.61146,3.7793 -3.43182,4.05377 -2.88896,0.28115 -3.16826,0.64532 -3.75,4.88957 -0.3457,2.52219 -0.62855,7.223 -0.62855,10.44623 v 5.86043 l -6.750015,0.011 c -3.7125,0.006 -8.4375,0.28993 -10.5,0.63084 -3.30223,0.54582 -3.75,0.9572 -3.75,3.44518 0,2.81365 -0.03,2.82657 -7.250005,3.11916 l -7.25,0.29381 -0.31336,3.25 c -0.29575,3.06738 -0.5486,3.2595 -4.5,3.41915 -7.8888,0.31873 -15.189856,0.33068 -20.830796,0.0341 z m 25.330796,-17.45325 0.31336,-3.25 7.25,-0.29381 7.250005,-0.29381 v -3.45619 -3.45619 h 6.83333 c 3.75834,0 7.02084,-0.18559 7.25,-0.41242 0.22918,-0.22684 0.26667,-3.61668 0.0833,-7.53299 l -0.33335,-7.12056 -10.66665,0.28298 -10.666635,0.28299 -0.31088,3.21679 -0.31088,3.21678 -10.68912,0.28322 -10.689116,0.28321 -0.30896,3.19104 c -0.26901,2.77845 -0.72155,3.23099 -3.5,3.5 -2.88863,0.27968 -3.22009,0.6583 -3.49761,3.99522 -0.30026,3.61044 -0.22826,3.69272 3.5,4 3.26056,0.26874 3.8283,0.67234 3.95803,2.81374 0.0833,1.375 0.1958,2.8375 0.25,3.25 0.0542,0.4125 3.220026,0.75 7.035176,0.75 h 6.93664 z m 4.42454,-22.94772 c -0.90511,-0.50653 -3.3254,-0.7449 -5.37842,-0.52972 l -3.73276,0.39123 4.25,0.16811 c 2.3375,0.0924 4.25,0.64466 4.25,1.22712 0,0.58246 0.50779,0.74518 1.12842,0.36161 0.76992,-0.47584 0.6056,-0.98998 -0.51724,-1.61835 z m -7.70577,-35.55228 c -0.73671,-0.9625 -1.46681,-1.9375 -1.62244,-2.16667 -0.15563,-0.22916 -0.28297,0.55834 -0.28297,1.75 0,1.33194 0.62507,2.16667 1.62244,2.16667 1.3888,0 1.42955,-0.25202 0.28297,-1.75 z"
       id="path1" /><g
       id="g1"
       transform="matrix(0.57202489,0,0,0.57185529,179.32605,108.95334)"><circle
         cx="100"
         cy="50"
         r="15"
         fill="#808080"
         stroke="#000000"
         id="circle1" /><circle
         cx="100"
         cy="100"
         r="15"
         fill="#808080"
         stroke="#000000"
         id="circle2" /><circle
         cx="100"
         cy="150"
         r="3"
         fill="#808080"
         id="circle3" /><circle
         cx="100"
         cy="170"
         r="3"
         fill="#808080"
         id="circle4" /><circle
         cx="100"
         cy="190"
         r="3"
         fill="#808080"
         id="circle5" /><circle
         cx="100"
         cy="240"
         r="15"
         fill="#808080"
         stroke="#000000"
         id="circle6" /><circle
         cx="100"
         cy="290"
         r="15"
         fill="#808080"
         stroke="#000000"
         id="circle7" /><circle
         cx="300"
         cy="50"
         r="15"
         fill="#808080"
         stroke="#000000"
         id="circle8" /><circle
         cx="300"
         cy="100"
         r="15"
         fill="#808080"
         stroke="#000000"
         id="circle9" /><circle
         cx="300"
         cy="150"
         r="15"
         fill="#808080"
         stroke="#000000"
         id="circle10" /><circle
         cx="300"
         cy="200"
         r="15"
         fill="#808080"
         stroke="#000000"
         id="circle11" /><circle
         cx="300"
         cy="250"
         r="15"
         fill="#808080"
         stroke="#000000"
         id="circle12" /><circle
         cx="300"
         cy="300"
         r="15"
         fill="#808080"
         stroke="#000000"
         id="circle13" /><circle
         cx="500"
         cy="30"
         r="15"
         fill="#808080"
         stroke="#000000"
         id="circle14" /><circle
         cx="500"
         cy="70"
         r="15"
         fill="#808080"
         stroke="#000000"
         id="circle15" /><circle
         cx="500"
         cy="110"
         r="15"
         fill="#808080"
         stroke="#000000"
         id="circle16" /><circle
         cx="500"
         cy="150"
         r="15"
         fill="#808080"
         stroke="#000000"
         id="circle17" /><circle
         cx="500"
         cy="190"
         r="15"
         fill="#808080"
         stroke="#000000"
         id="circle18" /><circle
         cx="500"
         cy="230"
         r="15"
         fill="#808080"
         stroke="#000000"
         id="circle19" /><circle
         cx="500"
         cy="270"
         r="15"
         fill="#808080"
         stroke="#000000"
         id="circle20" /><circle
         cx="500"
         cy="310"
         r="15"
         fill="#808080"
         stroke="#000000"
         id="circle21" /><circle
         cx="500"
         cy="350"
         r="15"
         fill="#808080"
         stroke="#000000"
         id="circle22" /><circle
         cx="500"
         cy="390"
         r="15"
         fill="#808080"
         stroke="#000000"
         id="circle23" /><circle
         cx="700"
         cy="100"
         r="15"
         fill="#f08080"
         stroke="#000000"
         id="circle24" /><circle
         cx="700"
         cy="150"
         r="15"
         fill="#f08080"
         stroke="#000000"
         id="circle25" /><circle
         cx="700"
         cy="200"
         r="15"
         fill="#f08080"
         stroke="#000000"
         id="circle26" /><circle
         cx="700"
         cy="250"
         r="15"
         fill="#f08080"
         stroke="#000000"
         id="circle27" /><line
         x1="115"
         y1="50"
         x2="285"
         y2="50"
         stroke="#808080"
         id="line27" /><line
         x1="115"
         y1="50"
         x2="285"
         y2="100"
         stroke="#808080"
         id="line28" /><line
         x1="115"
         y1="50"
         x2="285"
         y2="150"
         stroke="#808080"
         id="line29" /><line
         x1="115"
         y1="50"
         x2="285"
         y2="200"
         stroke="#808080"
         id="line30" /><line
         x1="115"
         y1="50"
         x2="285"
         y2="250"
         stroke="#808080"
         id="line31" /><line
         x1="115"
         y1="50"
         x2="285"
         y2="300"
         stroke="#808080"
         id="line32" /><line
         x1="115"
         y1="100"
         x2="285"
         y2="100"
         stroke="#808080"
         id="line33" /><line
         x1="115"
         y1="100"
         x2="285"
         y2="150"
         stroke="#808080"
         id="line34" /><line
         x1="115"
         y1="100"
         x2="285"
         y2="200"
         stroke="#808080"
         id="line35" /><line
         x1="115"
         y1="100"
         x2="285"
         y2="250"
         stroke="#808080"
         id="line36" /><line
         x1="115"
         y1="100"
         x2="285"
         y2="300"
         stroke="#808080"
         id="line37" /><line
         x1="115"
         y1="240"
         x2="285"
         y2="50"
         stroke="#808080"
         id="line38" /><line
         x1="115"
         y1="240"
         x2="285"
         y2="100"
         stroke="#808080"
         id="line39" /><line
         x1="115"
         y1="240"
         x2="285"
         y2="150"
         stroke="#808080"
         id="line40" /><line
         x1="115"
         y1="240"
         x2="285"
         y2="200"
         stroke="#808080"
         id="line41" /><line
         x1="115"
         y1="240"
         x2="285"
         y2="250"
         stroke="#808080"
         id="line42" /><line
         x1="115"
         y1="240"
         x2="285"
         y2="300"
         stroke="#808080"
         id="line43" /><line
         x1="115"
         y1="290"
         x2="285"
         y2="50"
         stroke="#808080"
         id="line44" /><line
         x1="115"
         y1="290"
         x2="285"
         y2="100"
         stroke="#808080"
         id="line45" /><line
         x1="115"
         y1="290"
         x2="285"
         y2="150"
         stroke="#808080"
         id="line46" /><line
         x1="115"
         y1="290"
         x2="285"
         y2="200"
         stroke="#808080"
         id="line47" /><line
         x1="115"
         y1="290"
         x2="285"
         y2="250"
         stroke="#808080"
         id="line48" /><line
         x1="115"
         y1="290"
         x2="285"
         y2="300"
         stroke="#808080"
         id="line49" /><line
         x1="315"
         y1="50"
         x2="485"
         y2="30"
         stroke="#808080"
         id="line50" /><line
         x1="315"
         y1="50"
         x2="485"
         y2="70"
         stroke="#808080"
         id="line51" /><line
         x1="315"
         y1="50"
         x2="485"
         y2="110"
         stroke="#808080"
         id="line52" /><line
         x1="315"
         y1="50"
         x2="485"
         y2="150"
         stroke="#808080"
         id="line53" /><line
         x1="315"
         y1="50"
         x2="485"
         y2="190"
         stroke="#808080"
         id="line54" /><line
         x1="315"
         y1="50"
         x2="485"
         y2="230"
         stroke="#808080"
         id="line55" /><line
         x1="315"
         y1="50"
         x2="485"
         y2="270"
         stroke="#808080"
         id="line56" /><line
         x1="315"
         y1="50"
         x2="485"
         y2="310"
         stroke="#808080"
         id="line57" /><line
         x1="315"
         y1="50"
         x2="485"
         y2="350"
         stroke="#808080"
         id="line58" /><line
         x1="315"
         y1="50"
         x2="485"
         y2="390"
         stroke="#808080"
         id="line59" /><line
         x1="315"
         y1="100"
         x2="485"
         y2="30"
         stroke="#808080"
         id="line60" /><line
         x1="315"
         y1="100"
         x2="485"
         y2="70"
         stroke="#808080"
         id="line61" /><line
         x1="315"
         y1="100"
         x2="485"
         y2="110"
         stroke="#808080"
         id="line62" /><line
         x1="315"
         y1="100"
         x2="485"
         y2="150"
         stroke="#808080"
         id="line63" /><line
         x1="315"
         y1="100"
         x2="485"
         y2="190"
         stroke="#808080"
         id="line64" /><line
         x1="315"
         y1="100"
         x2="485"
         y2="230"
         stroke="#808080"
         id="line65" /><line
         x1="315"
         y1="100"
         x2="485"
         y2="270"
         stroke="#808080"
         id="line66" /><line
         x1="315"
         y1="100"
         x2="485"
         y2="310"
         stroke="#808080"
         id="line67" /><line
         x1="315"
         y1="100"
         x2="485"
         y2="350"
         stroke="#808080"
         id="line68" /><line
         x1="315"
         y1="100"
         x2="485"
         y2="390"
         stroke="#808080"
         id="line69" /><line
         x1="315"
         y1="150"
         x2="485"
         y2="30"
         stroke="#808080"
         id="line70" /><line
         x1="315"
         y1="150"
         x2="485"
         y2="70"
         stroke="#808080"
         id="line71" /><line
         x1="315"
         y1="150"
         x2="485"
         y2="110"
         stroke="#808080"
         id="line72" /><line
         x1="315"
         y1="150"
         x2="485"
         y2="150"
         stroke="#808080"
         id="line73" /><line
         x1="315"
         y1="150"
         x2="485"
         y2="190"
         stroke="#808080"
         id="line74" /><line
         x1="315"
         y1="150"
         x2="485"
         y2="230"
         stroke="#808080"
         id="line75" /><line
         x1="315"
         y1="150"
         x2="485"
         y2="270"
         stroke="#808080"
         id="line76" /><line
         x1="315"
         y1="150"
         x2="485"
         y2="310"
         stroke="#808080"
         id="line77" /><line
         x1="315"
         y1="150"
         x2="485"
         y2="350"
         stroke="#808080"
         id="line78" /><line
         x1="315"
         y1="150"
         x2="485"
         y2="390"
         stroke="#808080"
         id="line79" /><line
         x1="315"
         y1="200"
         x2="485"
         y2="30"
         stroke="#808080"
         id="line80" /><line
         x1="315"
         y1="200"
         x2="485"
         y2="70"
         stroke="#808080"
         id="line81" /><line
         x1="315"
         y1="200"
         x2="485"
         y2="110"
         stroke="#808080"
         id="line82" /><line
         x1="315"
         y1="200"
         x2="485"
         y2="150"
         stroke="#808080"
         id="line83" /><line
         x1="315"
         y1="200"
         x2="485"
         y2="190"
         stroke="#808080"
         id="line84" /><line
         x1="315"
         y1="200"
         x2="485"
         y2="230"
         stroke="#808080"
         id="line85" /><line
         x1="315"
         y1="200"
         x2="485"
         y2="270"
         stroke="#808080"
         id="line86" /><line
         x1="315"
         y1="200"
         x2="485"
         y2="310"
         stroke="#808080"
         id="line87" /><line
         x1="315"
         y1="200"
         x2="485"
         y2="350"
         stroke="#808080"
         id="line88" /><line
         x1="315"
         y1="200"
         x2="485"
         y2="390"
         stroke="#808080"
         id="line89" /><line
         x1="315"
         y1="250"
         x2="485"
         y2="30"
         stroke="#808080"
         id="line90" /><line
         x1="315"
         y1="250"
         x2="485"
         y2="70"
         stroke="#808080"
         id="line91" /><line
         x1="315"
         y1="250"
         x2="485"
         y2="110"
         stroke="#808080"
         id="line92" /><line
         x1="315"
         y1="250"
         x2="485"
         y2="150"
         stroke="#808080"
         id="line93" /><line
         x1="315"
         y1="250"
         x2="485"
         y2="190"
         stroke="#808080"
         id="line94" /><line
         x1="315"
         y1="250"
         x2="485"
         y2="230"
         stroke="#808080"
         id="line95" /><line
         x1="315"
         y1="250"
         x2="485"
         y2="270"
         stroke="#808080"
         id="line96" /><line
         x1="315"
         y1="250"
         x2="485"
         y2="310"
         stroke="#808080"
         id="line97" /><line
         x1="315"
         y1="250"
         x2="485"
         y2="350"
         stroke="#808080"
         id="line98" /><line
         x1="315"
         y1="250"
         x2="485"
         y2="390"
         stroke="#808080"
         id="line99" /><line
         x1="315"
         y1="300"
         x2="485"
         y2="30"
         stroke="#808080"
         id="line100" /><line
         x1="315"
         y1="300"
         x2="485"
         y2="70"
         stroke="#808080"
         id="line101" /><line
         x1="315"
         y1="300"
         x2="485"
         y2="110"
         stroke="#808080"
         id="line102" /><line
         x1="315"
         y1="300"
         x2="485"
         y2="150"
         stroke="#808080"
         id="line103" /><line
         x1="315"
         y1="300"
         x2="485"
         y2="190"
         stroke="#808080"
         id="line104" /><line
         x1="315"
         y1="300"
         x2="485"
         y2="230"
         stroke="#808080"
         id="line105" /><line
         x1="315"
         y1="300"
         x2="485"
         y2="270"
         stroke="#808080"
         id="line106" /><line
         x1="315"
         y1="300"
         x2="485"
         y2="310"
         stroke="#808080"
         id="line107" /><line
         x1="315"
         y1="300"
         x2="485"
         y2="350"
         stroke="#808080"
         id="line108" /><line
         x1="315"
         y1="300"
         x2="485"
         y2="390"
         stroke="#808080"
         id="line109" /><line
         x1="515"
         y1="30"
         x2="685"
         y2="100"
         stroke="#808080"
         id="line110" /><line
         x1="515"
         y1="30"
         x2="685"
         y2="150"
         stroke="#808080"
         id="line111" /><line
         x1="515"
         y1="30"
         x2="685"
         y2="200"
         stroke="#808080"
         id="line112" /><line
         x1="515"
         y1="30"
         x2="685"
         y2="250"
         stroke="#808080"
         id="line113" /><line
         x1="515"
         y1="70"
         x2="685"
         y2="100"
         stroke="#808080"
         id="line114" /><line
         x1="515"
         y1="70"
         x2="685"
         y2="150"
         stroke="#808080"
         id="line115" /><line
         x1="515"
         y1="70"
         x2="685"
         y2="200"
         stroke="#808080"
         id="line116" /><line
         x1="515"
         y1="70"
         x2="685"
         y2="250"
         stroke="#808080"
         id="line117" /><line
         x1="515"
         y1="110"
         x2="685"
         y2="100"
         stroke="#808080"
         id="line118" /><line
         x1="515"
         y1="110"
         x2="685"
         y2="150"
         stroke="#808080"
         id="line119" /><line
         x1="515"
         y1="110"
         x2="685"
         y2="200"
         stroke="#808080"
         id="line120" /><line
         x1="515"
         y1="110"
         x2="685"
         y2="250"
         stroke="#808080"
         id="line121" /><line
         x1="515"
         y1="150"
         x2="685"
         y2="100"
         stroke="#808080"
         id="line122" /><line
         x1="515"
         y1="150"
         x2="685"
         y2="150"
         stroke="#808080"
         id="line123" /><line
         x1="515"
         y1="150"
         x2="685"
         y2="200"
         stroke="#808080"
         id="line124" /><line
         x1="515"
         y1="150"
         x2="685"
         y2="250"
         stroke="#808080"
         id="line125" /><line
         x1="515"
         y1="190"
         x2="685"
         y2="100"
         stroke="#808080"
         id="line126" /><line
         x1="515"
         y1="190"
         x2="685"
         y2="150"
         stroke="#808080"
         id="line127" /><line
         x1="515"
         y1="190"
         x2="685"
         y2="200"
         stroke="#808080"
         id="line128" /><line
         x1="515"
         y1="190"
         x2="685"
         y2="250"
         stroke="#808080"
         id="line129" /><line
         x1="515"
         y1="230"
         x2="685"
         y2="100"
         stroke="#808080"
         id="line130" /><line
         x1="515"
         y1="230"
         x2="685"
         y2="150"
         stroke="#808080"
         id="line131" /><line
         x1="515"
         y1="230"
         x2="685"
         y2="200"
         stroke="#808080"
         id="line132" /><line
         x1="515"
         y1="230"
         x2="685"
         y2="250"
         stroke="#808080"
         id="line133" /><line
         x1="515"
         y1="270"
         x2="685"
         y2="100"
         stroke="#808080"
         id="line134" /><line
         x1="515"
         y1="270"
         x2="685"
         y2="150"
         stroke="#808080"
         id="line135" /><line
         x1="515"
         y1="270"
         x2="685"
         y2="200"
         stroke="#808080"
         id="line136" /><line
         x1="515"
         y1="270"
         x2="685"
         y2="250"
         stroke="#808080"
         id="line137" /><line
         x1="515"
         y1="310"
         x2="685"
         y2="100"
         stroke="#808080"
         id="line138" /><line
         x1="515"
         y1="310"
         x2="685"
         y2="150"
         stroke="#808080"
         id="line139" /><line
         x1="515"
         y1="310"
         x2="685"
         y2="200"
         stroke="#808080"
         id="line140" /><line
         x1="515"
         y1="310"
         x2="685"
         y2="250"
         stroke="#808080"
         id="line141" /><line
         x1="515"
         y1="350"
         x2="685"
         y2="100"
         stroke="#808080"
         id="line142" /><line
         x1="515"
         y1="350"
         x2="685"
         y2="150"
         stroke="#808080"
         id="line143" /><line
         x1="515"
         y1="350"
         x2="685"
         y2="200"
         stroke="#808080"
         id="line144" /><line
         x1="515"
         y1="350"
         x2="685"
         y2="250"
         stroke="#808080"
         id="line145" /><line
         x1="515"
         y1="390"
         x2="685"
         y2="100"
         stroke="#808080"
         id="line146" /><line
         x1="515"
         y1="390"
         x2="685"
         y2="150"
         stroke="#808080"
         id="line147" /><line
         x1="515"
         y1="390"
         x2="685"
         y2="200"
         stroke="#808080"
         id="line148" /><line
         x1="515"
         y1="390"
         x2="685"
         y2="250"
         stroke="#808080"
         id="line149" /></g><text
       xml:space="preserve"
       style="font-size:96px;text-align:start;writing-mode:tb-rl;direction:ltr;text-anchor:start;fill:#aaaaaa;fill-opacity:1"
       x="762.50098"
       y="-12.219571"
       id="text1"><tspan
         sodipodi:role="line"
         id="tspan1"
         x="762.50098"
         y="-12.219571"
         style="writing-mode:vertical-lr;text-orientation:upright;fill:#aaaaaa;fill-opacity:1">0100</tspan></text><path
       id="path2"
       style="fill:#909090;fill-opacity:1;fill-rule:nonzero;stroke-width:0.641452"
       d="m 195.24563,155.18851 v 101.42241 l 27.15049,-53.76611 z m -69.38494,36.65897 v 28.10548 h 76.42395 v -28.10548 z" /><path
       id="path2-9"
       style="fill:#909090;fill-opacity:1;fill-rule:nonzero;stroke-width:0.641452"
       d="m 685.38721,150.44391 v 101.42241 l 27.15049,-53.76611 z m -69.38494,36.65897 v 28.10548 h 76.42395 v -28.10548 z" /><rect
       style="fill:#ff00ff;fill-opacity:0;fill-rule:nonzero;stroke:#ff00ff;stroke-width:9.15301;stroke-dasharray:none;stroke-opacity:1"
       id="rect2"
       width="171.92091"
       height="277.00922"
       x="428.48331"
       y="86.335434" /></g></svg>
