<?xml version="1.0" encoding="UTF-8" standalone="no"?>
<svg
   xmlns:dc="http://purl.org/dc/elements/1.1/"
   xmlns:cc="http://creativecommons.org/ns#"
   xmlns:rdf="http://www.w3.org/1999/02/22-rdf-syntax-ns#"
   xmlns:svg="http://www.w3.org/2000/svg"
   xmlns="http://www.w3.org/2000/svg"
   xmlns:sodipodi="http://sodipodi.sourceforge.net/DTD/sodipodi-0.dtd"
   xmlns:inkscape="http://www.inkscape.org/namespaces/inkscape"
   width="52.519794mm"
   height="52.524025mm"
   viewBox="0 0 52.519794 52.524025"
   version="1.1"
   id="svg44"
   inkscape:version="1.0.2-2 (e86c870879, 2021-01-15)"
   sodipodi:docname="linkedin.svg">
  <defs
     id="defs38" />
  <sodipodi:namedview
     id="base"
     pagecolor="#ffffff"
     bordercolor="#666666"
     borderopacity="1.0"
     inkscape:pageopacity="0.0"
     inkscape:pageshadow="2"
     inkscape:zoom="0.49497475"
     inkscape:cx="35.522322"
     inkscape:cy="436.65178"
     inkscape:document-units="mm"
     inkscape:current-layer="layer1"
     inkscape:document-rotation="0"
     showgrid="false"
     inkscape:window-width="1624"
     inkscape:window-height="1024"
     inkscape:window-x="38"
     inkscape:window-y="0"
     inkscape:window-maximized="0" />
  <metadata
     id="metadata41">
    <rdf:RDF>
      <cc:Work
         rdf:about="">
        <dc:format>image/svg+xml</dc:format>
        <dc:type
           rdf:resource="http://purl.org/dc/dcmitype/StillImage" />
        <dc:title></dc:title>
      </cc:Work>
    </rdf:RDF>
  </metadata>
  <g
     inkscape:label="Layer 1"
     inkscape:groupmode="layer"
     id="layer1"
     transform="translate(-41.084878,-55.09337)">
    <path
       style="fill:#b3b3b3;stroke-width:0.264583"
       d="m 43.559158,107.41348 c -0.45815,-0.13429 -1.2023,-0.66476 -1.65364,-1.17882 l -0.82064,-0.93465 V 81.373634 57.447254 l 0.81792,-0.93156 c 0.48431,-0.5516 1.23284,-1.04328 1.8352,-1.20548 0.67467,-0.18167 8.81371,-0.24974 24.165921,-0.20213 22.91102,0.0711 23.156136,0.0774 23.879181,0.61732 0.401799,0.30003 0.976027,0.87431 1.276059,1.27617 0.541443,0.7252 0.545515,0.90713 0.545515,24.37206 0,23.464926 -0.0041,23.646856 -0.545515,24.372056 -0.300032,0.40187 -0.87426,0.97614 -1.276062,1.27618 -0.723818,0.54049 -0.945398,0.54593 -24.060735,0.59065 -13.623414,0.0264 -23.676774,-0.0565 -24.163204,-0.19904 z m 12.93255,-19.644506 c 0.0392,-6.74178 0.0322,-12.45991 -0.0156,-12.70695 -0.0778,-0.40219 -0.49294,-0.44153 -3.96875,-0.37607 l -3.88186,0.0731 -0.0689,12.30312 c -0.0379,6.76672 -0.0119,12.45196 0.0578,12.63386 0.0934,0.24356 1.13871,0.330726 3.96639,0.330726 h 3.83961 z m 12.903591,4.88272 c 0,-8.03093 0.136345,-8.97542 1.501351,-10.40018 1.247643,-1.30226 4.375502,-1.49524 5.64301,-0.34816 1.272707,1.15179 1.350836,1.75022 1.330174,10.18851 l -0.01943,7.934896 h 4.10682 4.106823 l -0.0052,-7.871356 c -0.0029,-4.32924 -0.118348,-8.64526 -0.256588,-9.59114 -0.603951,-4.1324 -1.710634,-6.03104 -4.350152,-7.46316 -1.53919,-0.83512 -1.726327,-0.87122 -4.516144,-0.87122 -2.702478,0 -3.021177,0.0561 -4.460661,0.78549 -0.852633,0.43201 -1.983727,1.29313 -2.513542,1.91359 l -0.963297,1.12811 v -1.64901 -1.64901 l -3.770313,-0.0734 -3.770312,-0.0734 v 12.70726 12.707266 h 3.96875 3.96875 z M 54.754728,70.810244 c 1.14499,-0.53312 1.45618,-0.83861 1.91823,-1.88313 0.966,-2.18381 0.57128,-4.11458 -1.15015,-5.62602 -2.22083,-1.94991 -5.63256,-1.20233 -7.03204,1.54087 -0.66176,1.29716 -0.67062,2.64476 -0.0257,3.90836 0.60814,1.19154 1.20803,1.75797 2.41728,2.28248 1.30287,0.56511 2.30429,0.50755 3.87239,-0.22256 z"
       id="path62" />
  </g>
</svg>
